Patient4_TMGait_0pt3_02_left_29_EMG.mot
version=1
nRows=19
nColumns=33
inDegrees=no
endheader
time	1LAddLong	2LGlutMax	3LGlutMed	4LIliopsoas	5LSemiMemb	6LBicFemLong	7LRecFem	8LVastMed	9LVastLat	10LGasMed	11LTibAnt	12lTibPost	13LPeroneusLong	14LSol	15LExtDigLong	16LFlexDigLong	17RAddLong	18RGlutMax	19RGlutMed	20RIliopsoas	21RSemiMemb	22RBicFemLong	23RRecFem	24RVastMed	25RVastLat	26RGasMed	27RTibAnt	28RTibPost	29RPeroneusLong	30RSol	31RExtDigLong	32RFlexDigLong
58.105	0.001221	-0.08667	-0.12756	0.012054	0.005035	0.000458	0.01709	0.003357	0	-0.002594	-0.035248	-0.001678	0.034637	0.031586	-0.13321	0.003967	0.000305	0.010529	0.025177	0.016327	0.099182	-0.032654	0.18982	0.005951	-0.021057	-0.009308	0.011749	-0.00885	-0.20279	-0.048676	0.003204	-0.012207
58.106	0.008545	-0.085144	-0.098877	0.003052	0.01236	0.005341	0.002747	0.008087	0.038757	-0.00946	-0.018005	0.005188	0.015411	0.040436	-0.23041	-0.005493	0.027161	0.019226	0.07309	-0.03891	-0.017395	-0.029449	0.19745	-0.039825	-0.047302	-0.011597	0.010529	-0.007477	-0.036316	-0.004272	0.007172	-0.002136
58.107	0.006561	-0.076294	-0.097656	0.007324	0.00946	0.007782	0.025787	0.003967	0.039673	-0.025635	0.007172	0.007172	0.000916	0.000305	-0.10925	0.011292	0.013733	-0.00412	0.075836	-0.041962	0.01358	-0.029144	0.16769	-0.087738	-0.034637	-0.006256	0.007324	-0.011139	0.10788	0.001984	0.01236	-0.00885
58.108	0.006104	-0.066833	-0.083008	-0.005493	0.006104	-0.005493	0.063324	0.005646	0.062866	-0.033112	0.004578	0.001831	0.019379	-0.09079	-0.031433	-0.00412	0.01297	-0.006409	0.080414	-0.046387	-0.050049	0.023499	-0.015564	-0.075226	-0.02655	-0.016785	0.022125	-0.012817	0.054779	0.00946	0.013885	-0.012512
58.109	0.003052	-0.078583	-0.11032	-0.013885	0.007172	0.000305	0.055084	0.001984	0.026093	-0.02121	-0.013275	0.006714	0.12116	-0.12497	-0.031433	-0.004883	0.011292	-0.021515	0.17792	-0.077515	-0.031281	0.037689	-0.2533	-0.10315	0.011139	-0.016632	0.020142	-0.011139	-0.004425	-0.001678	0.011597	-0.010071
58.11	0.003204	-0.067139	-0.058136	-0.015564	0.010834	-0.016632	0.061798	0.005646	0.008392	-0.009613	-0.003967	0.006409	0.23285	-0.081635	-0.012665	-0.005188	0.015869	0.009613	0.10178	-0.090027	-0.03952	0.043793	-0.41031	-0.051422	0.030365	-0.015106	-0.029907	-0.009155	0.002136	0.007172	0.011902	0.001831
58.111	0.008545	-0.034332	-0.02594	0.008698	0.00824	-0.007935	0.064087	0.007782	-0.004883	-0.017853	0.002594	0.001068	0.090942	-0.033417	0.037842	-0.003815	0.016022	-0.004425	0.036011	-0.1622	-0.10529	0.028076	-0.30411	0.006104	-0.016785	-0.016327	-0.076599	-0.010071	0.045929	-0.003357	0.013885	-0.016022
58.112	0.001526	-0.042877	-0.067444	-0.01709	0.002899	-0.003204	0.056	0.008545	-0.012512	-0.014954	-0.015259	0.001678	-0.10834	-0.077209	0.041351	-0.002747	0.025787	0.032806	0.0383	-0.14862	-0.13001	-0.003052	-0.11276	-0.023193	-0.018005	-0.007324	-0.1857	-0.003204	0.039063	-0.037842	0.016785	-0.010071
58.113	0.000916	-0.06424	-0.070496	0.005035	0.009766	0.004425	0.055389	-0.010223	-0.003357	-0.011139	-0.015564	0.00412	-0.20996	-0.071716	0.040894	-0.008698	0.076294	0.019379	-0.016174	-0.03952	-0.086212	-0.015564	-0.028687	-0.060272	-0.027466	-0.007324	-0.15442	-0.001373	-0.012665	-0.10956	0.011749	-0.019531
58.114	0.002594	-0.081024	-0.046997	0.009766	0.010376	-0.01236	0.079956	0.002594	-0.008545	-0.023041	-0.009918	-0.000153	-0.19882	0.039368	0.07309	-0.010681	0.10117	0.010834	-0.058899	0.028839	0.07019	0.000458	0.036926	-0.081024	-0.019226	-0.008392	0.015869	-0.002747	-0.081024	-0.090637	0.017853	-0.011139
58.115	0.011139	-0.084381	-0.097961	0.00061	0.007477	0	0.063019	0.009308	0.006409	-0.02121	-0.005493	0.003815	0.13794	0.084839	0.047455	-0.005188	0.087585	0.020294	-0.11826	0.12833	0.14343	0.023193	-0.023804	-0.074005	-0.00885	-0.00412	0.18936	0.001526	-0.13825	-0.06073	0.010223	-0.014801
58.116	0.002289	-0.050964	-0.13229	0.007935	0.009308	0.016785	0.053711	-0.001221	0.041809	-0.019379	-0.001984	-0.002289	0.11322	0.093384	0.011902	0.001373	0.066681	-0.057678	-0.071411	0.20798	0.10895	-0.010681	-0.0914	-0.044556	-0.021667	-0.013275	0.43076	-0.000305	0.01358	-0.073395	0.014954	-0.02243
58.117	0.007782	-0.058289	-0.080414	-0.010986	-0.000305	0.012207	0.031433	0.007629	0.031738	-0.018311	0.005493	0.003662	-0.16357	0.10437	0.010529	0.004272	0.017395	-0.016937	-0.11215	0.12848	0.11093	0.049438	-0.028381	-0.079193	-0.014191	-0.006561	0.72861	0.004425	0.047607	-0.080414	0.013428	-0.013275
58.118	0.005493	-0.076141	-0.08728	-0.011597	0.004272	0.000763	0.00946	0.002747	0.012817	-0.028381	-0.000153	-0.001678	-0.03006	0.083923	-0.056305	0.003815	0.011292	0.009613	-0.11307	-0.064697	-0.12451	0.11917	0.043945	-0.06546	-0.068359	-0.015717	0.58624	0.001526	-0.029907	-0.051117	0.010376	-0.01297
58.119	0.004272	-0.054626	-0.026093	-0.003052	0.012207	0.000458	0.031128	0.00351	0.033569	-0.048523	-0.007935	0.01709	0.071106	0.10284	-0.041809	-0.000305	0.005646	0.036469	-0.10101	-0.1088	-0.049744	0.035095	0.063171	-0.072937	-0.060883	-0.005188	0.19943	0.002289	0.025482	-0.056152	0.019531	-0.015717
58.12	-0.006866	-0.002289	0.033112	-0.007019	0.014496	-0.010071	0.03067	-0.008087	0.046082	-0.023651	0.000305	-0.003357	-0.18555	0.033875	-0.00824	-0.004425	-0.012512	0.027161	-0.046082	-0.07019	0.026093	-0.010223	0.069122	0.000305	-0.037842	-0.003815	0.091095	-0.002594	0.078583	-0.020447	0.018463	-0.018921
58.121	0.011292	-0.078125	0.080261	-0.002441	0.014191	-0.001526	0.040283	0.005493	0.016632	-0.057831	-0.003815	-0.001678	0.013885	-0.016785	-0.010376	-0.001831	-0.032349	-0.013123	0.14038	-0.012054	0.044708	0.02594	0.050201	0.035248	-0.04303	-0.001678	-0.63339	-0.002441	0.11993	0.050964	0.012512	-0.011444
58.122	-0.001526	-0.12695	0.00351	0.009308	0.007935	0.022888	0.054474	0.015869	0.013123	-0.019836	-0.001068	-0.000458	0.39734	-0.00412	-0.011292	0.010376	-0.039825	-0.029755	0.11856	0.11093	-0.027313	0.15305	0.059357	0.10025	-0.012054	-0.003967	-0.3978	0.001068	0.13306	0.10956	0.01358	-0.009613
58.123	0.002441	-0.11871	-0.028839	-0.019226	0.004883	0.022736	0.04364	0.015106	0.005951	0.029297	0.018005	0.005341	-0.21042	0.072784	0.082397	0.002747	-0.059662	-0.046692	0.035553	0.13153	-0.046844	0.16663	0.10071	0.066223	-0.013275	-0.003662	0.12131	0.001068	0.036926	0.071106	0.014648	-0.011902
